HIERARCHY
ROOT Pelvis
{
	OFFSET 0.000000 0.000000 0.000000
	CHANNELS 6 Xposition Yposition Zposition Zrotation Yrotation Xrotation 
	JOINT Left_hip
	{
		OFFSET 0.068973 -0.091024 -0.007589
		CHANNELS 3 Zrotation Yrotation Xrotation
		JOINT Left_knee
		{
			OFFSET 0.036482 -0.391037 -0.003979
			CHANNELS 3 Zrotation Yrotation Xrotation
			JOINT Left_ankle
			{
				OFFSET -0.012239 -0.415469 -0.043440
				CHANNELS 3 Zrotation Yrotation Xrotation
				JOINT Left_foot
				{
					OFFSET 0.023806 -0.058558 0.118702
					CHANNELS 3 Zrotation Yrotation Xrotation
					End Site
					{
						OFFSET 0.000000 0.000000 0.000000
					}
				}
			}
		}
	}
	JOINT Right_hip
	{
		OFFSET -0.066552 -0.090468 -0.003847
		CHANNELS 3 Zrotation Yrotation Xrotation
		JOINT Right_knee
		{
			OFFSET -0.042435 -0.398340 -0.006400
			CHANNELS 3 Zrotation Yrotation Xrotation
			JOINT Right_ankle
			{
				OFFSET 0.014931 -0.415421 -0.041327
				CHANNELS 3 Zrotation Yrotation Xrotation
				JOINT Right_foot
				{
					OFFSET -0.021472 -0.049410 0.121889
					CHANNELS 3 Zrotation Yrotation Xrotation
					End Site
					{
						OFFSET 0.000000 0.000000 0.000000
					}
				}
			}
		}
	}
	JOINT Spine1
	{
		OFFSET -0.002904 0.105700 -0.022855
		CHANNELS 3 Zrotation Yrotation Xrotation
		JOINT Spine2
		{
			OFFSET 0.004179 0.132554 -0.002501
			CHANNELS 3 Zrotation Yrotation Xrotation
			JOINT Spine3
			{
				OFFSET 0.001987 0.049603 0.025988
				CHANNELS 3 Zrotation Yrotation Xrotation
				JOINT Neck
				{
					OFFSET -0.003935 0.211336 -0.045638
					CHANNELS 3 Zrotation Yrotation Xrotation
					JOINT Head
					{
						OFFSET 0.003906 0.065991 0.051018
						CHANNELS 3 Zrotation Yrotation Xrotation
						End Site
						{
							OFFSET 0.000000 0.000000 0.000000
						}
					}
				}
				JOINT Left_collar
				{
					OFFSET 0.072882 0.117751 -0.036270
					CHANNELS 3 Zrotation Yrotation Xrotation
					JOINT Left_shoulder
					{
						OFFSET 0.082118 0.032630 -0.005771
						CHANNELS 3 Zrotation Yrotation Xrotation
						JOINT Left_elbow
						{
							OFFSET 0.263305 -0.015144 -0.028095
							CHANNELS 3 Zrotation Yrotation Xrotation
							JOINT Left_wrist
							{
								OFFSET 0.250741 0.010115 -0.000759
								CHANNELS 3 Zrotation Yrotation Xrotation
								JOINT Left_palm
								{
									OFFSET 0.080683 -0.009989 -0.013613
									CHANNELS 3 Zrotation Yrotation Xrotation
									End Site
									{
										OFFSET 0.000000 0.000000 0.000000
									}
								}
							}
						}
					}
				}
				JOINT Right_collar
				{
					OFFSET -0.074811 0.116132 -0.040385
					CHANNELS 3 Zrotation Yrotation Xrotation
					JOINT Right_shoulder
					{
						OFFSET -0.085089 0.032943 -0.007484
						CHANNELS 3 Zrotation Yrotation Xrotation
						JOINT Right_elbow
						{
							OFFSET -0.254763 -0.014219 -0.020321
							CHANNELS 3 Zrotation Yrotation Xrotation
							JOINT Right_wrist
							{
								OFFSET -0.256597 0.009233 -0.005063
								CHANNELS 3 Zrotation Yrotation Xrotation
								JOINT Right_palm
								{
									OFFSET -0.080528 -0.007219 -0.010379
									CHANNELS 3 Zrotation Yrotation Xrotation
									End Site
									{
										OFFSET 0.000000 0.000000 0.000000
									}
								}
							}
						}
					}
				}
			}
		}
	}
}
MOTION
Frames: 10
Frame Time: 0.100000
-0.124770 -0.251200 1.339440 179.470678 1.550803 -14.746532 10.750852 10.456421 11.791929 -0.360811 -1.017791 0.109312 -1.916090 12.327679 1.520273 0.658916 9.106592 -7.828529 -3.857128 -5.080514 -5.702946 2.079436 -2.822562 10.632169 0.804423 -9.694211 -1.622909 0.208313 -2.449868 11.091924 3.898419 -1.733447 3.173651 5.723776 -6.603555 19.801514 0.825399 0.546519 -0.643118 5.315059 -30.118437 28.155347 8.376438 -22.090288 9.029917 -21.510412 -13.456439 11.483388 -51.095632 -6.425029 8.594826 5.085505 -30.315869 11.363617 -11.052699 0.609981 21.666240 -15.397902 -10.956095 -14.147318 16.437011 22.086112 8.051052 33.900108 12.272539 1.132691 -4.046095 43.773129 16.781934 10.104689 2.580619 26.846464 13.942953 5.600076 -7.909343 
-0.105240 -0.257382 1.347823 179.512623 7.054808 -15.953333 11.754197 10.450618 6.335931 -0.370876 -0.761630 10.860427 -3.736353 9.943652 3.968278 -0.329427 10.050018 -11.325449 -4.114521 -6.919618 0.590933 2.572233 -3.601226 4.596837 -1.475153 -10.356716 -1.482601 2.282447 -3.667102 12.289888 5.464925 -0.919488 6.287383 7.816972 -8.284374 20.087909 3.009380 -1.160522 0.818309 9.252148 -30.536739 26.911231 10.804450 -24.552504 1.870271 -21.494907 -12.696316 12.594749 -53.026963 -5.051067 7.958412 3.564559 -35.046776 10.184245 -7.828928 -3.041065 17.011050 -19.201261 -11.889426 -14.643779 14.687786 17.917694 8.151584 36.464887 -2.871044 2.306857 3.993969 46.686271 22.515393 11.018393 5.538645 17.604192 17.033673 7.224349 -8.781018 
-0.092133 -0.263551 1.357042 -178.423044 6.956288 -16.843475 11.015085 10.299278 4.075849 -0.410713 1.123602 17.676632 -4.100805 10.674257 7.809204 -0.832231 9.681091 -14.092553 -5.303701 -6.834410 4.091018 2.681041 -2.722513 1.684879 -0.621019 -10.554037 -0.889483 -0.532384 -2.847699 11.209905 6.124105 -0.291307 7.954894 7.520673 -9.166211 21.373125 3.359463 -2.385628 2.589432 8.373303 -26.324163 28.724664 11.931387 -22.170499 -1.188804 -21.369013 -11.855050 13.144157 -53.665433 -3.097293 8.228328 1.288018 -36.651713 9.373892 -5.247685 -7.225103 8.110242 -22.197536 -11.884343 -15.947718 12.462839 13.433881 7.625823 45.448956 -17.535317 4.316133 11.975743 56.103899 21.535458 10.891745 12.426264 -6.488252 20.710082 6.997220 -8.203473 
-0.086485 -0.267323 1.361687 -175.938812 1.530949 -15.844109 8.360848 8.223317 1.373312 -0.865842 0.618193 22.957389 -1.047360 11.071492 5.407181 -3.349836 9.821656 -14.260124 -5.479877 -4.912197 2.416579 2.067010 -0.298298 1.822841 1.216667 -9.457444 -0.225837 -3.653709 -2.950014 9.614076 6.510703 -0.445456 9.275195 5.806363 -9.422509 20.888651 2.775379 -3.023068 4.012398 4.644195 -14.657270 31.006354 9.839310 -11.196001 -2.348847 -21.881739 -12.656015 12.544507 -55.779323 0.583841 8.986955 1.325435 -34.531011 9.473923 -2.915175 -9.088194 1.246620 -22.676612 -10.344839 -15.754473 9.720750 9.999308 6.582294 55.486465 -26.124445 4.290890 18.212891 63.353083 22.676841 8.415931 16.812438 -24.715634 23.993963 5.856690 -7.132383 
-0.082191 -0.266630 1.361203 -174.731115 -8.330186 -14.820716 8.574021 7.495166 1.143957 -2.029721 -2.046638 21.381382 -0.318731 10.268190 3.254578 -4.023470 9.802712 -15.358453 -3.755962 -1.842130 0.240351 1.852254 3.626315 0.601073 4.550812 -7.304584 0.714264 -8.669179 -2.582641 8.330328 5.986094 -0.460464 11.324391 3.926999 -8.583387 21.347378 2.430134 -2.314467 4.901890 1.546970 0.559320 32.186074 7.152247 0.574425 -4.370841 -21.464656 -15.434782 11.779232 -56.588323 2.328808 9.550902 0.978164 -33.832013 12.764697 -4.012904 -10.775627 -0.892226 -22.475177 -9.207928 -16.504565 8.871219 10.523281 6.381815 63.352814 -27.481607 3.683388 19.695632 66.531767 23.757318 8.093011 19.523411 -32.260411 25.770135 4.493521 -6.265379 
-0.081061 -0.263434 1.360194 -175.147594 -20.384650 -12.252903 11.051864 10.651921 4.425331 0.305939 1.398020 7.962225 0.438772 12.759973 2.683194 -3.397095 8.617098 -13.085355 -0.951387 0.652664 -3.249386 2.442716 6.732987 -1.441114 7.558359 -3.546680 3.077924 -9.679315 -1.639487 8.059789 4.143509 -1.214503 11.393899 1.993374 -7.317298 21.913211 1.087510 -1.812453 4.988776 -1.311202 13.138688 31.888544 2.471050 6.879079 -4.216391 -19.913768 -14.583589 10.079636 -54.959159 2.019094 9.375613 2.382335 -33.955797 11.797767 -2.462819 -11.108429 -1.105871 -19.431251 -7.195642 -16.547015 11.159394 9.826620 7.754219 66.320029 -21.692306 5.686986 13.767479 63.162635 19.088960 5.447331 17.514810 -30.753600 23.779193 2.325237 -4.867572 
-0.092753 -0.259555 1.357866 -176.581541 -28.191224 -9.305073 12.608961 12.697923 3.144070 -0.820167 4.894001 3.948333 -1.091146 13.700048 5.636537 -1.455480 7.559914 -12.305027 0.979224 2.568729 -6.192965 2.998850 8.590487 -3.268623 9.480812 -1.874655 6.588625 -11.481143 -1.072406 6.376576 1.703896 -1.587528 12.138844 0.541899 -6.998501 19.072168 0.508444 -2.083168 4.391172 -2.550634 19.706637 31.932772 2.274802 11.810647 -5.684379 -19.640014 -13.706243 8.142333 -49.570666 0.355505 9.209624 5.406466 -32.609338 8.077287 0.470849 -11.598496 -0.945907 -17.369981 -5.700178 -14.965828 12.703484 6.555641 6.138346 67.404520 -21.986394 7.787596 16.445960 60.404471 21.931343 4.877149 16.809246 -31.195845 22.518771 1.729750 -3.232492 
-0.115065 -0.259202 1.359024 -178.071660 -33.549044 -10.344544 13.902173 13.702984 5.382187 -0.381395 6.438902 5.581077 0.306685 16.187281 3.852225 -2.300709 6.152816 -12.597693 2.577818 3.033701 -4.592463 2.710508 10.819175 -4.571437 10.892521 -1.331090 9.416119 -11.832929 -0.143176 3.918100 -0.037257 -2.045477 10.537314 -1.329463 -7.621644 21.369778 -0.666644 -2.954809 5.509194 -3.145534 24.124872 29.902633 1.099662 13.346962 -5.244382 -17.186685 -15.368834 8.093979 -44.525717 -1.083657 4.344593 10.342191 -36.532423 -0.700283 5.755934 -10.973324 -2.772300 -15.947258 -4.046841 -14.130325 10.824734 8.378137 7.546783 70.724697 -20.633776 6.922924 19.975546 62.693194 26.734457 1.613707 15.462993 -33.607053 20.732448 0.060328 -0.482321 
-0.143125 -0.261221 1.363768 -178.122203 -36.757727 -11.182748 12.827766 13.932788 7.394696 -1.029679 8.663263 4.294233 1.416132 16.561860 1.822915 -2.768173 5.766732 -11.194227 2.129139 3.289566 -5.462867 2.172840 11.194805 -3.184093 11.579875 -0.645171 11.418185 -10.448948 0.749164 2.413404 -1.358699 -2.334230 8.990561 -2.278544 -7.127836 20.849434 -1.713847 -2.772349 4.713159 -3.863482 25.751893 29.608695 -0.007041 14.573782 -4.000336 -15.638098 -13.887589 5.854369 -41.944840 -1.925047 4.630406 15.035950 -42.909615 -7.100962 6.787481 -11.218685 -4.550472 -15.039050 -3.694754 -13.837980 10.386075 7.752975 7.417701 68.518391 -18.459928 10.454112 22.931225 61.149656 30.001962 2.500677 15.153860 -33.757622 19.072367 0.216946 0.245438 
-0.172868 -0.264974 1.372490 -177.895972 -36.408339 -13.566638 11.028406 13.378537 10.185746 -1.289735 8.282460 2.325907 0.932143 17.376043 0.715964 -0.938207 4.541408 -10.495322 1.263718 2.791007 -4.588245 0.914043 10.929569 -1.433887 12.662817 -2.309538 12.212867 -11.801764 2.477548 1.096150 -1.200672 -2.930951 8.470060 -3.657991 -6.971363 18.590865 -2.200918 -2.544238 5.571964 -6.838450 25.170761 28.150677 -0.603590 17.627421 -4.121714 -14.874210 -13.497834 4.472968 -42.772822 -0.492857 5.139102 18.298520 -50.041619 -10.470452 2.976238 -11.761366 -4.984009 -16.437115 -5.203477 -14.154232 6.878467 7.424421 7.227885 60.782386 -18.209362 11.655607 36.894278 63.330759 43.737579 9.827052 18.620609 -32.176648 19.295629 1.516105 -0.783176 
